<svg width="15" height="18" viewBox="0 0 15 18" fill="none" xmlns="http://www.w3.org/2000/svg">
<path d="M7.5 17.8078C5.42183 17.8078 3.65233 17.0901 2.1915 15.6547C0.7305 14.2194 0 12.4721 0 10.4128C0 9.42992 0.194584 8.48983 0.58375 7.5925C0.97275 6.695 1.51025 5.89883 2.19625 5.204L7.5 0L12.8038 5.204C13.4898 5.89883 14.0273 6.69508 14.4163 7.59275C14.8054 8.49042 15 9.43108 15 10.4148C15 12.4754 14.2695 14.2228 12.8085 15.6568C11.3477 17.0908 9.57817 17.8078 7.5 17.8078ZM7.5 16.3078C9.16667 16.3078 10.5833 15.7385 11.75 14.6C12.9167 13.4615 13.5 12.0666 13.5 10.4152C13.5 9.63108 13.35 8.88458 13.05 8.17575C12.75 7.46675 12.3167 6.84533 11.75 6.3115L7.5 2.10775L3.25 6.3115C2.68333 6.84533 2.25 7.46675 1.95 8.17575C1.65 8.88458 1.5 9.63108 1.5 10.4152C1.5 12.0666 2.08333 13.4615 3.25 14.6C4.41667 15.7385 5.83333 16.3078 7.5 16.3078Z" fill="#F0F0F0"/>
</svg>
