<svg width="16" height="13" viewBox="0 0 16 13" fill="none" xmlns="http://www.w3.org/2000/svg">
<path d="M4.335 12.5C3.59806 12.5 2.9691 12.2396 2.44812 11.7188C1.92715 11.1981 1.66667 10.5694 1.66667 9.83271C1.66667 9.0959 1.92715 8.46681 2.44812 7.94542C2.9691 7.42417 3.59806 7.16354 4.335 7.16354H13.165C13.9019 7.16354 14.5309 7.42389 15.0519 7.94458C15.5728 8.46542 15.8333 9.09417 15.8333 9.83083C15.8333 10.5675 15.5728 11.1965 15.0519 11.7179C14.5309 12.2393 13.9019 12.5 13.165 12.5H4.335ZM4.335 11.25H13.165C13.559 11.25 13.8939 11.1119 14.1696 10.8358C14.4454 10.5599 14.5833 10.2247 14.5833 9.83021C14.5833 9.4359 14.4454 9.10118 14.1696 8.82604C13.8939 8.5509 13.559 8.41333 13.165 8.41333H4.335C3.94097 8.41333 3.60611 8.55139 3.33042 8.8275C3.05458 9.10361 2.91667 9.43882 2.91667 9.83313C2.91667 10.2274 3.05458 10.5622 3.33042 10.8373C3.60611 11.1124 3.94097 11.25 4.335 11.25ZM2.66833 5.33646C1.93139 5.33646 1.30243 5.07611 0.781458 4.55542C0.260486 4.03458 0 3.40583 0 2.66917C0 1.9325 0.260486 1.30347 0.781458 0.782083C1.30243 0.260694 1.93139 0 2.66833 0H11.4983C12.2353 0 12.8642 0.260417 13.3852 0.78125C13.9062 1.30194 14.1667 1.93063 14.1667 2.66729C14.1667 3.4041 13.9062 4.03319 13.3852 4.55458C12.8642 5.07583 12.2353 5.33646 11.4983 5.33646H2.66833ZM2.66021 4.08667H11.4983C11.8924 4.08667 12.2272 3.94861 12.5029 3.6725C12.7788 3.39639 12.9167 3.06118 12.9167 2.66688C12.9167 2.27257 12.7788 1.93785 12.5029 1.66271C12.2272 1.38757 11.8924 1.25 11.4983 1.25H2.66021C2.26854 1.25 1.93556 1.38806 1.66125 1.66417C1.38708 1.94014 1.25 2.27535 1.25 2.66979C1.25 3.0641 1.38708 3.39882 1.66125 3.67396C1.93556 3.9491 2.26854 4.08667 2.66021 4.08667Z" fill="#F0F0F0"/>
</svg>
