<svg width="13" height="13" viewBox="0 0 13 13" fill="none" xmlns="http://www.w3.org/2000/svg">
<path d="M3.05775 11.2933L4.65862 8.58169H3.69956V6.51206L2.09138 9.2235H3.05775V11.2933ZM1.125 5.0625H5.625V1.35581C5.625 1.29806 5.60094 1.24519 5.55281 1.19719C5.50481 1.14906 5.45194 1.125 5.39419 1.125H1.35581C1.29806 1.125 1.24519 1.14906 1.19719 1.19719C1.14906 1.24519 1.125 1.29806 1.125 1.35581V5.0625ZM1.125 11.625H5.625V6.1875H1.125V11.625ZM0 12.75V1.35581C0 0.976937 0.13125 0.65625 0.39375 0.39375C0.65625 0.13125 0.976937 0 1.35581 0H5.39419C5.77306 0 6.09375 0.13125 6.35625 0.39375C6.61875 0.65625 6.75 0.976937 6.75 1.35581V6.23081H7.58644C7.92969 6.23081 8.22225 6.35169 8.46412 6.59344C8.706 6.83531 8.82694 7.12788 8.82694 7.47113V10.9328C8.82694 11.174 8.92525 11.3882 9.12188 11.5753C9.3185 11.7623 9.53987 11.8558 9.786 11.8558C10.0446 11.8558 10.2691 11.7623 10.4595 11.5753C10.65 11.3882 10.7453 11.174 10.7453 10.9328V4.08169H10.5216C10.3283 4.08169 10.167 4.01706 10.0376 3.88781C9.90838 3.75844 9.84375 3.59712 9.84375 3.40387V2.0625H10.1828V1.08169H10.8461V2.0625H11.5384V1.08169H12.2019V2.0625H12.5408V3.40387C12.5408 3.59712 12.4761 3.75844 12.3469 3.88781C12.2175 4.01706 12.0562 4.08169 11.8629 4.08169H11.6394V10.9328C11.6394 11.424 11.4596 11.8497 11.1 12.2098C10.7404 12.5699 10.3024 12.75 9.786 12.75C9.28212 12.75 8.84725 12.5699 8.48138 12.2098C8.11563 11.8497 7.93275 11.424 7.93275 10.9328V7.47113C7.93275 7.36538 7.9015 7.28125 7.839 7.21875C7.7765 7.15625 7.69231 7.125 7.58644 7.125H6.75V12.75H0Z" fill="#87C445"/>
</svg>
