<svg width="12" height="15" viewBox="0 0 12 15" fill="none" xmlns="http://www.w3.org/2000/svg">
<path d="M5.0625 7.80281H6.1875V4.125H5.0625V7.80281ZM5.625 9.98081C5.79663 9.98081 5.9405 9.92275 6.05662 9.80663C6.17275 9.6905 6.23081 9.54663 6.23081 9.375C6.23081 9.20338 6.17275 9.0595 6.05662 8.94338C5.9405 8.82725 5.79663 8.76919 5.625 8.76919C5.45337 8.76919 5.3095 8.82725 5.19338 8.94338C5.07725 9.0595 5.01919 9.20338 5.01919 9.375C5.01919 9.54663 5.07725 9.6905 5.19338 9.80663C5.3095 9.92275 5.45337 9.98081 5.625 9.98081ZM0 12.2884V11.1636H1.35581V5.56725C1.35581 4.55863 1.66712 3.66681 2.28975 2.89181C2.91225 2.11681 3.7115 1.62112 4.6875 1.40475V0.9375C4.6875 0.677125 4.77856 0.45575 4.96069 0.273375C5.14281 0.0911253 5.36394 0 5.62406 0C5.88431 0 6.10575 0.0911253 6.28838 0.273375C6.47113 0.45575 6.5625 0.677125 6.5625 0.9375V1.40475C7.5385 1.62112 8.33775 2.11681 8.96025 2.89181C9.58288 3.66681 9.89419 4.55863 9.89419 5.56725V11.1636H11.25V12.2884H0ZM5.62369 14.3942C5.25056 14.3942 4.93156 14.2614 4.66669 13.9959C4.40169 13.7304 4.26919 13.4113 4.26919 13.0384H6.98081C6.98081 13.4125 6.84794 13.732 6.58219 13.9969C6.31644 14.2618 5.99694 14.3942 5.62369 14.3942ZM2.48081 11.1636H8.76919V5.56725C8.76919 4.699 8.46225 3.95794 7.84838 3.34406C7.23438 2.73006 6.49325 2.42306 5.625 2.42306C4.75675 2.42306 4.01563 2.73006 3.40163 3.34406C2.78775 3.95794 2.48081 4.699 2.48081 5.56725V11.1636Z" fill="#ADB7D2"/>
</svg>
