<svg width="15" height="15" viewBox="0 0 15 15" fill="none" xmlns="http://www.w3.org/2000/svg">
<path d="M7.125 10.6731C7.29663 10.6731 7.4405 10.615 7.55662 10.4989C7.67275 10.3827 7.73081 10.2389 7.73081 10.0673C7.73081 9.89563 7.67275 9.75175 7.55662 9.63563C7.4405 9.51963 7.29663 9.46163 7.125 9.46163C6.95337 9.46163 6.8095 9.51963 6.69338 9.63563C6.57725 9.75175 6.51919 9.89563 6.51919 10.0673C6.51919 10.2389 6.57725 10.3827 6.69338 10.4989C6.8095 10.615 6.95337 10.6731 7.125 10.6731ZM6.5625 7.93275H7.6875V3.43275H6.5625V7.93275ZM7.12631 14.25C6.14081 14.25 5.2145 14.063 4.34737 13.689C3.48025 13.315 2.726 12.8074 2.08462 12.1663C1.44325 11.5252 0.935437 10.7713 0.561187 9.9045C0.187062 9.03775 0 8.11169 0 7.12631C0 6.14081 0.187 5.2145 0.561 4.34737C0.935 3.48025 1.44256 2.726 2.08369 2.08462C2.72481 1.44325 3.47875 0.935437 4.3455 0.561187C5.21225 0.187062 6.13831 0 7.12369 0C8.10919 0 9.0355 0.187 9.90263 0.561C10.7698 0.935 11.524 1.44256 12.1654 2.08369C12.8068 2.72481 13.3146 3.47875 13.6888 4.3455C14.0629 5.21225 14.25 6.13831 14.25 7.12369C14.25 8.10919 14.063 9.0355 13.689 9.90263C13.315 10.7698 12.8074 11.524 12.1663 12.1654C11.5252 12.8068 10.7713 13.3146 9.9045 13.6888C9.03775 14.0629 8.11169 14.25 7.12631 14.25ZM7.125 13.125C8.8 13.125 10.2188 12.5437 11.3813 11.3813C12.5437 10.2188 13.125 8.8 13.125 7.125C13.125 5.45 12.5437 4.03125 11.3813 2.86875C10.2188 1.70625 8.8 1.125 7.125 1.125C5.45 1.125 4.03125 1.70625 2.86875 2.86875C1.70625 4.03125 1.125 5.45 1.125 7.125C1.125 8.8 1.70625 10.2188 2.86875 11.3813C4.03125 12.5437 5.45 13.125 7.125 13.125Z" fill="#ADB7D2"/>
</svg>
