<svg width="16" height="18" viewBox="0 0 16 18" fill="none" xmlns="http://www.w3.org/2000/svg">
<path d="M5.58017 9.35504C5.36005 9.35504 5.16821 9.27334 5.00463 9.10995C4.84123 8.94637 4.75953 8.75452 4.75953 8.53441C4.75953 8.31429 4.84123 8.12244 5.00463 7.95887C5.16821 7.79547 5.36005 7.71377 5.58017 7.71377C5.80046 7.71377 5.99231 7.79547 6.15571 7.95887C6.31911 8.12244 6.4008 8.31429 6.4008 8.53441C6.4008 8.75452 6.31911 8.94637 6.15571 9.10995C5.99231 9.27334 5.80046 9.35504 5.58017 9.35504ZM10.4218 9.35504C10.2016 9.35504 10.0097 9.27334 9.84631 9.10995C9.68291 8.94637 9.60121 8.75452 9.60121 8.53441C9.60121 8.31429 9.68291 8.12244 9.84631 7.95887C10.0097 7.79547 10.2016 7.71377 10.4218 7.71377C10.642 7.71377 10.8338 7.79547 10.9974 7.95887C11.1608 8.12244 11.2425 8.31429 11.2425 8.53441C11.2425 8.75452 11.1608 8.94637 10.9974 9.10995C10.8338 9.27334 10.642 9.35504 10.4218 9.35504ZM0 17.0688V16.002H1.0668V1.72342C1.0668 1.23233 1.23127 0.822326 1.5602 0.493395C1.88913 0.164465 2.29913 0 2.79022 0H13.2118C13.7029 0 14.1129 0.164465 14.4418 0.493395C14.7707 0.822326 14.9352 1.23233 14.9352 1.72342V16.002H16.002V17.0688H0ZM2.1336 16.002H7.46761V1.0668H2.79022C2.62593 1.0668 2.47542 1.13517 2.33869 1.27189C2.20197 1.40862 2.1336 1.55913 2.1336 1.72342V16.002ZM8.53441 16.002H13.8684V1.72342C13.8684 1.55913 13.8 1.40862 13.6633 1.27189C13.5266 1.13517 13.3761 1.0668 13.2118 1.0668H8.53441V16.002Z" fill="#F0F0F0"/>
</svg>
