<svg width="31" height="31" viewBox="0 0 31 31" fill="none" xmlns="http://www.w3.org/2000/svg">
<path d="M15.4417 24.5976C15.9063 24.5976 16.2988 24.4372 16.6191 24.1164C16.9393 23.7955 17.0994 23.4028 17.0994 22.9381C17.0994 22.4735 16.939 22.081 16.6182 21.7608C16.2973 21.4406 15.9046 21.2804 15.4399 21.2804C14.9753 21.2804 14.5828 21.4408 14.2626 21.7617C13.9424 22.0825 13.7822 22.4752 13.7822 22.9399C13.7822 23.4046 13.9426 23.797 14.2635 24.1173C14.5843 24.4375 14.977 24.5976 15.4417 24.5976ZM15.4623 30.9192C13.3241 30.9192 11.3143 30.5134 9.4329 29.7019C7.55146 28.8904 5.91488 27.7892 4.52316 26.3981C3.13142 25.0069 2.02962 23.3711 1.21777 21.4905C0.405924 19.6099 0 17.6005 0 15.4623C0 13.3241 0.405748 11.3143 1.21724 9.4329C2.02874 7.55146 3.13003 5.91488 4.52113 4.52316C5.91225 3.13142 7.54811 2.02962 9.42871 1.21777C11.3093 0.405924 13.3187 0 15.4569 0C17.5951 0 19.6049 0.405748 21.4863 1.21724C23.3677 2.02874 25.0043 3.13003 26.396 4.52113C27.7878 5.91225 28.8896 7.54811 29.7014 9.42871C30.5133 11.3093 30.9192 13.3187 30.9192 15.4569C30.9192 17.5951 30.5134 19.6049 29.7019 21.4863C28.8904 23.3677 27.7892 25.0043 26.3981 26.396C25.0069 27.7878 23.3711 28.8896 21.4905 29.7014C19.6099 30.5133 17.6005 30.9192 15.4623 30.9192ZM15.4596 28.4782C19.094 28.4782 22.1723 27.2171 24.6947 24.6947C27.2171 22.1723 28.4782 19.094 28.4782 15.4596C28.4782 11.8252 27.2171 8.74686 24.6947 6.2245C22.1723 3.70213 19.094 2.44095 15.4596 2.44095C11.8252 2.44095 8.74686 3.70213 6.2245 6.2245C3.70213 8.74686 2.44095 11.8252 2.44095 15.4596C2.44095 19.094 3.70213 22.1723 6.2245 24.6947C8.74686 27.2171 11.8252 28.4782 15.4596 28.4782ZM15.5914 8.49336C16.3422 8.49336 16.992 8.72972 17.5407 9.20243C18.0894 9.67514 18.3638 10.266 18.3638 10.9751C18.3638 11.5718 18.1885 12.1059 17.838 12.5773C17.4875 13.0489 17.0869 13.488 16.6363 13.8949C16.0456 14.4189 15.5255 14.9953 15.076 15.6242C14.6266 16.253 14.3862 16.9534 14.3549 17.7254C14.3445 18.0216 14.4488 18.2699 14.6679 18.4702C14.8869 18.6704 15.1425 18.7706 15.4346 18.7706C15.7475 18.7706 16.0125 18.6662 16.2294 18.4576C16.4464 18.249 16.5851 17.9934 16.6456 17.6909C16.7541 17.1318 16.9852 16.6337 17.3388 16.1966C17.6925 15.7595 18.0755 15.3439 18.4881 14.9497C19.0811 14.3717 19.5988 13.7413 20.0411 13.0588C20.4834 12.3762 20.7046 11.6149 20.7046 10.7748C20.7046 9.48546 20.1965 8.42614 19.1805 7.59682C18.1645 6.76751 16.9784 6.35285 15.6223 6.35285C14.6543 6.35285 13.7415 6.56722 12.8841 6.99597C12.0266 7.42469 11.359 8.05006 10.8812 8.87208C10.7331 9.12451 10.6855 9.39021 10.7385 9.66919C10.7916 9.94814 10.9347 10.1599 11.168 10.3046C11.465 10.4699 11.7699 10.5171 12.0829 10.4462C12.3958 10.3752 12.6618 10.1969 12.8809 9.91105C13.2105 9.48333 13.6095 9.14013 14.0779 8.88144C14.5463 8.62272 15.0508 8.49336 15.5914 8.49336Z" fill="#ADB7D2"/>
</svg>
