<svg width="9" height="11" viewBox="0 0 9 11" fill="none" xmlns="http://www.w3.org/2000/svg">
<path d="M0 9.22481L0 8.13953H1.08527V4.34109C1.08527 3.59044 1.31137 2.92345 1.76357 2.34012C2.21576 1.75678 2.80362 1.37468 3.52713 1.1938V0.813954C3.52713 0.587855 3.60627 0.395672 3.76453 0.237403C3.9228 0.0791344 4.11499 0 4.34109 0C4.56718 0 4.75937 0.0791344 4.91764 0.237403C5.0759 0.395672 5.15504 0.587855 5.15504 0.813954V1.1938C5.87855 1.37468 6.46641 1.75678 6.9186 2.34012C7.3708 2.92345 7.5969 3.59044 7.5969 4.34109V8.13953H8.68217V9.22481H0ZM4.34109 10.8527C4.04264 10.8527 3.78714 10.7464 3.57461 10.5339C3.36208 10.3214 3.25581 10.0659 3.25581 9.76744H5.42636C5.42636 10.0659 5.32009 10.3214 5.10756 10.5339C4.89503 10.7464 4.63953 10.8527 4.34109 10.8527ZM3.79845 5.96899H4.88372V3.25581H3.79845V5.96899ZM4.34109 7.5969C4.49483 7.5969 4.62371 7.5449 4.72771 7.44089C4.83172 7.33689 4.88372 7.20801 4.88372 7.05426C4.88372 6.90052 4.83172 6.77164 4.72771 6.66764C4.62371 6.56363 4.49483 6.51163 4.34109 6.51163C4.18734 6.51163 4.05846 6.56363 3.95446 6.66764C3.85045 6.77164 3.79845 6.90052 3.79845 7.05426C3.79845 7.20801 3.85045 7.33689 3.95446 7.44089C4.05846 7.5449 4.18734 7.5969 4.34109 7.5969Z" fill="#E74739"/>
</svg>
