<svg width="15" height="15" viewBox="0 0 15 15" fill="none" xmlns="http://www.w3.org/2000/svg">
<path d="M7.047 9.74269C7.20662 9.74269 7.34025 9.68888 7.44788 9.58125C7.55562 9.4735 7.6095 9.33981 7.6095 9.18019C7.6095 9.02069 7.55562 8.88706 7.44788 8.77931C7.34025 8.67169 7.20662 8.61788 7.047 8.61788C6.88737 8.61788 6.75375 8.67169 6.64612 8.77931C6.53837 8.88706 6.4845 9.02069 6.4845 9.18019C6.4845 9.33981 6.53837 9.4735 6.64612 9.58125C6.75375 9.68888 6.88737 9.74269 7.047 9.74269ZM6.4845 7.875H7.6095V4.3125H6.4845V7.875ZM5.31619 14.25L5.03062 11.9653C4.82975 11.8981 4.62375 11.8039 4.41263 11.6828C4.20162 11.5615 4.01294 11.4317 3.84656 11.2933L1.73063 12.1875L0 9.1875L1.83019 7.80431C1.81294 7.69281 1.80069 7.58081 1.79344 7.46831C1.78619 7.35581 1.78256 7.24375 1.78256 7.13213C1.78256 7.0255 1.78619 6.91713 1.79344 6.807C1.80069 6.69688 1.81294 6.57644 1.83019 6.44569L0 5.0625L1.73063 2.07694L3.83925 2.964C4.02013 2.82075 4.21319 2.68975 4.41844 2.571C4.62369 2.45225 4.82537 2.35681 5.0235 2.28469L5.31619 0H8.77781L9.06337 2.29181C9.28837 2.37356 9.49194 2.469 9.67406 2.57812C9.85631 2.68725 10.0403 2.81588 10.2259 2.964L12.3634 2.07694L14.094 5.0625L12.2349 6.46725C12.2618 6.58838 12.2765 6.70163 12.279 6.807C12.2814 6.91225 12.2826 7.01825 12.2826 7.125C12.2826 7.22687 12.2801 7.3305 12.2753 7.43587C12.2705 7.54113 12.2533 7.66156 12.2235 7.79719L14.0681 9.1875L12.3373 12.1875L10.2259 11.286C10.0403 11.4341 9.85081 11.5651 9.65756 11.679C9.46431 11.793 9.26625 11.8861 9.06337 11.9582L8.77781 14.25H5.31619ZM6.297 13.125H7.77112L8.04075 11.1159C8.4235 11.0159 8.77325 10.8739 9.09 10.6898C9.40688 10.5055 9.71244 10.2687 10.0067 9.97931L11.8701 10.7625L12.6086 9.4875L10.9817 8.26163C11.0442 8.06738 11.0867 7.87694 11.1092 7.69031C11.1318 7.50381 11.1431 7.31537 11.1431 7.125C11.1431 6.92975 11.1318 6.74131 11.1092 6.55969C11.0867 6.37794 11.0442 6.19231 10.9817 6.00281L12.6229 4.7625L11.8845 3.4875L9.99938 4.28213C9.74838 4.01388 9.44769 3.77688 9.09731 3.57113C8.74681 3.36538 8.39225 3.21969 8.03362 3.13406L7.797 1.125H6.30863L6.06038 3.12694C5.67775 3.21731 5.32444 3.35575 5.00044 3.54225C4.67631 3.72887 4.36713 3.96925 4.07288 4.26338L2.2095 3.4875L1.47112 4.7625L3.09075 5.96963C3.02825 6.14763 2.9845 6.33275 2.9595 6.525C2.9345 6.71725 2.922 6.91963 2.922 7.13213C2.922 7.32738 2.9345 7.51875 2.9595 7.70625C2.9845 7.89375 3.02587 8.07887 3.08362 8.26163L1.47112 9.4875L2.2095 10.7625L4.06575 9.975C4.35038 10.2673 4.65469 10.5067 4.97869 10.6933C5.30281 10.8798 5.661 11.0231 6.05325 11.1231L6.297 13.125Z" fill="#ADB7D2"/>
</svg>
