<svg width="11" height="9" viewBox="0 0 11 9" fill="none" xmlns="http://www.w3.org/2000/svg">
<path d="M0.488372 8.95349C0.379845 8.95349 0.325581 8.95349 0.217054 8.89923C0.162791 8.89923 0.108527 8.7907 0.0542635 8.73643C0.0542635 8.68217 0 8.57364 0 8.51938C0 8.41085 -5.25584e-08 8.35659 0.0542635 8.24806L4.72093 0.217054C4.72093 0.108527 4.82946 0.0542635 4.88372 0.0542635C4.93798 0.0542635 5.04651 0 5.10077 0C5.15504 0 5.26357 -5.25584e-08 5.31783 0.0542635C5.37209 0.0542635 5.48062 0.162791 5.48062 0.217054L10.1473 8.24806C10.1473 8.35659 10.2015 8.41085 10.2015 8.51938C10.2015 8.62791 10.2016 8.68217 10.1473 8.73643C10.1473 8.7907 10.0388 8.84496 9.9845 8.89923C9.93023 8.89923 9.8217 8.95349 9.71318 8.95349H0.488372ZM5.15504 7.48837C5.26357 7.48837 5.37209 7.48837 5.48062 7.37985C5.58915 7.27132 5.58915 7.21705 5.58915 7.05426C5.58915 6.89147 5.58915 6.83721 5.48062 6.72868C5.37209 6.62015 5.31783 6.62016 5.15504 6.62016C4.99225 6.62016 4.93798 6.62015 4.82946 6.72868C4.72093 6.83721 4.72093 6.89147 4.72093 7.05426C4.72093 7.21705 4.72093 7.27132 4.82946 7.37985C4.93798 7.48837 4.99225 7.48837 5.15504 7.48837ZM5.15504 6.07752C5.26357 6.07752 5.37209 6.07752 5.42636 5.96899C5.48062 5.91473 5.53488 5.8062 5.53488 5.69767V3.79845C5.53488 3.68992 5.53488 3.5814 5.42636 3.52713C5.37209 3.47287 5.26357 3.4186 5.15504 3.4186C5.04651 3.4186 4.93798 3.4186 4.88372 3.52713C4.82946 3.5814 4.77519 3.68992 4.77519 3.79845V5.69767C4.77519 5.8062 4.77519 5.91473 4.88372 5.96899C4.93798 6.02326 5.04651 6.07752 5.15504 6.07752Z" fill="#FF9500"/>
</svg>
